<svg xmlns="http://www.w3.org/2000/svg" xmlns:xlink="http://www.w3.org/1999/xlink" width="40" height="43" viewBox="0 0 40 43" fill="none">
<path d="M20 0.5C9.23045 0.5 0.5 9.28693 0.5 20.1262C0.5 30.9654 15.905 42.5 20 42.5C24.095 42.5 39.5 30.9654 39.5 20.1262C39.5 9.28693 30.7696 0.5 20 0.5Z" stroke="rgba(205, 217, 233, 1)" stroke-width="1"      fill="#4477EE" >
</path>
<path d="M14.2338 19.5C14.2338 18.3873 15.1356 17.4862 16.2476 17.4862L20.2745 17.4862L20.2745 16.9837C20.2745 16.9754 20.2747 16.9672 20.2751 16.959C20.2755 16.9508 20.2761 16.9426 20.277 16.9344C20.2778 16.9262 20.2788 16.918 20.28 16.9098C20.2812 16.9017 20.2826 16.8936 20.2842 16.8855C20.2858 16.8774 20.2876 16.8694 20.2896 16.8614C20.2916 16.8534 20.2938 16.8455 20.2962 16.8376C20.2986 16.8297 20.3012 16.8219 20.304 16.8141C20.3067 16.8064 20.3097 16.7987 20.3128 16.7911C20.316 16.7835 20.3193 16.7759 20.3228 16.7685C20.3264 16.7611 20.3301 16.7537 20.334 16.7464C20.3378 16.7392 20.3419 16.732 20.3461 16.7249C20.3504 16.7179 20.3548 16.7109 20.3593 16.7041C20.3639 16.6972 20.3687 16.6905 20.3736 16.6839C20.3785 16.6773 20.3835 16.6708 20.3888 16.6644C20.394 16.658 20.3994 16.6518 20.4049 16.6457C20.4104 16.6396 20.4161 16.6336 20.4219 16.6278C20.4278 16.622 20.4337 16.6163 20.4398 16.6108C20.4459 16.6052 20.4522 16.5999 20.4585 16.5946C20.4649 16.5894 20.4714 16.5844 20.478 16.5794C20.4846 16.5745 20.4913 16.5698 20.4982 16.5652C20.505 16.5607 20.512 16.5562 20.5191 16.552C20.5261 16.5478 20.5333 16.5437 20.5406 16.5398C20.5478 16.5359 20.5552 16.5322 20.5626 16.5287C20.5701 16.5252 20.5776 16.5219 20.5852 16.5187C20.5928 16.5156 20.6005 16.5126 20.6082 16.5098C20.616 16.5071 20.6238 16.5045 20.6317 16.5021C20.6396 16.4997 20.6475 16.4975 20.6555 16.4955C20.6635 16.4935 20.6715 16.4917 20.6796 16.4901C20.6877 16.4885 20.6958 16.4871 20.704 16.4859C20.7121 16.4847 20.7203 16.4836 20.7285 16.4828C20.7367 16.482 20.7449 16.4814 20.7531 16.481C20.7613 16.4806 20.7696 16.4804 20.7778 16.4804C20.786 16.4804 20.7943 16.4806 20.8025 16.481C20.8107 16.4814 20.8189 16.482 20.8271 16.4828C20.8353 16.4836 20.8435 16.4847 20.8516 16.4859C20.8598 16.4871 20.8679 16.4885 20.876 16.4901C20.8841 16.4917 20.8921 16.4935 20.9001 16.4955C20.9081 16.4975 20.916 16.4997 20.9239 16.5021C20.9318 16.5045 20.9396 16.5071 20.9473 16.5098C20.9551 16.5126 20.9628 16.5156 20.9704 16.5187C20.978 16.5219 20.9855 16.5252 20.993 16.5287C21.0004 16.5322 21.0078 16.5359 21.015 16.5398C21.0223 16.5437 21.0295 16.5478 21.0365 16.552C21.0436 16.5562 21.0505 16.5607 21.0574 16.5652C21.0643 16.5698 21.071 16.5745 21.0776 16.5794C21.0842 16.5844 21.0907 16.5894 21.0971 16.5946C21.1034 16.5999 21.1097 16.6052 21.1158 16.6108C21.1219 16.6163 21.1278 16.622 21.1337 16.6278C21.1395 16.6336 21.1452 16.6396 21.1507 16.6457C21.1562 16.6518 21.1616 16.658 21.1668 16.6644C21.1721 16.6708 21.1771 16.6773 21.182 16.6839C21.1869 16.6905 21.1917 16.6972 21.1963 16.7041C21.2008 16.7109 21.2052 16.7179 21.2095 16.7249C21.2137 16.732 21.2178 16.7392 21.2216 16.7464C21.2255 16.7537 21.2292 16.7611 21.2327 16.7685C21.2363 16.7759 21.2396 16.7835 21.2428 16.7911C21.2459 16.7987 21.2489 16.8064 21.2517 16.8141C21.2544 16.8219 21.257 16.8297 21.2594 16.8376C21.2618 16.8455 21.264 16.8534 21.266 16.8614C21.268 16.8694 21.2698 16.8774 21.2714 16.8855C21.273 16.8936 21.2744 16.9017 21.2756 16.9098C21.2768 16.918 21.2778 16.9262 21.2787 16.9344C21.2795 16.9426 21.2801 16.9508 21.2805 16.959C21.2809 16.9672 21.2811 16.9754 21.2811 16.9837L21.2811 17.4869L23.2978 17.4869L23.2978 14.4644L27.3269 14.4644L27.3269 19.5C27.3269 20.6128 26.4251 21.5139 25.3123 21.5139L21.2862 21.5139L21.2862 22.0171C21.2862 22.0254 21.286 22.0336 21.2856 22.0419C21.2852 22.0501 21.2846 22.0583 21.2838 22.0665C21.283 22.0747 21.282 22.0829 21.2808 22.0911C21.2796 22.0992 21.2782 22.1074 21.2766 22.1155C21.275 22.1235 21.2732 22.1316 21.2712 22.1396C21.2692 22.1476 21.267 22.1556 21.2646 22.1634C21.2622 22.1713 21.2596 22.1792 21.2569 22.1869C21.2541 22.1947 21.2511 22.2024 21.248 22.21C21.2448 22.2176 21.2415 22.2252 21.238 22.2326C21.2345 22.2401 21.2308 22.2475 21.2269 22.2547C21.223 22.262 21.2189 22.2692 21.2147 22.2763C21.2105 22.2834 21.206 22.2903 21.2015 22.2972C21.1969 22.304 21.1921 22.3108 21.1872 22.3174C21.1823 22.324 21.1772 22.3305 21.172 22.3369C21.1668 22.3433 21.1614 22.3495 21.1559 22.3557C21.1503 22.3618 21.1447 22.3677 21.1388 22.3736C21.133 22.3794 21.127 22.3851 21.1209 22.3906C21.1148 22.3962 21.1086 22.4016 21.1022 22.4068C21.0958 22.412 21.0893 22.4171 21.0827 22.422C21.0761 22.4269 21.0693 22.4317 21.0625 22.4363C21.0556 22.4409 21.0487 22.4453 21.0416 22.4495C21.0345 22.4538 21.0273 22.4578 21.0201 22.4617C21.0128 22.4656 21.0054 22.4693 20.998 22.4729C20.9905 22.4764 20.983 22.4797 20.9754 22.4829C20.9678 22.486 20.9601 22.489 20.9523 22.4918C20.9445 22.4946 20.9367 22.4972 20.9288 22.4996C20.9209 22.5019 20.913 22.5041 20.905 22.5062C20.897 22.5082 20.8889 22.51 20.8808 22.5116C20.8728 22.5132 20.8646 22.5146 20.8565 22.5158C20.8483 22.517 20.8401 22.518 20.8319 22.5188C20.8237 22.5196 20.8155 22.5202 20.8073 22.5207C20.799 22.5211 20.7908 22.5213 20.7825 22.5213C20.7743 22.5213 20.766 22.5211 20.7578 22.5207C20.7496 22.5202 20.7413 22.5196 20.7331 22.5188C20.7249 22.518 20.7168 22.517 20.7086 22.5158C20.7004 22.5146 20.6923 22.5132 20.6842 22.5116C20.6761 22.51 20.6681 22.5082 20.6601 22.5062C20.6521 22.5041 20.6441 22.5019 20.6362 22.4996C20.6284 22.4972 20.6205 22.4946 20.6128 22.4918C20.605 22.489 20.5973 22.486 20.5897 22.4829C20.5821 22.4797 20.5745 22.4764 20.5671 22.4729C20.5596 22.4693 20.5522 22.4656 20.545 22.4617C20.5377 22.4578 20.5305 22.4538 20.5235 22.4495C20.5164 22.4453 20.5094 22.4409 20.5026 22.4363C20.4957 22.4317 20.489 22.4269 20.4824 22.422C20.4757 22.4171 20.4692 22.412 20.4629 22.4068C20.4565 22.4016 20.4503 22.3962 20.4441 22.3906C20.438 22.3851 20.4321 22.3794 20.4262 22.3736C20.4204 22.3677 20.4147 22.3618 20.4092 22.3557C20.4037 22.3495 20.3983 22.3433 20.393 22.3369C20.3878 22.3305 20.3827 22.324 20.3778 22.3174C20.3729 22.3108 20.3682 22.304 20.3636 22.2972C20.359 22.2903 20.3546 22.2834 20.3504 22.2763C20.3462 22.2692 20.3421 22.262 20.3382 22.2547C20.3343 22.2475 20.3306 22.2401 20.3271 22.2326C20.3236 22.2252 20.3202 22.2176 20.3171 22.21C20.3139 22.2024 20.311 22.1947 20.3082 22.1869C20.3054 22.1792 20.3029 22.1713 20.3005 22.1634C20.2981 22.1556 20.2959 22.1476 20.2939 22.1396C20.2919 22.1316 20.2901 22.1235 20.2885 22.1155C20.2869 22.1074 20.2855 22.0992 20.2843 22.0911C20.2831 22.0829 20.2821 22.0747 20.2813 22.0665C20.2805 22.0583 20.2799 22.0501 20.2795 22.0419C20.2791 22.0336 20.2789 22.0254 20.2789 22.0171L20.2789 21.5139L18.2658 21.5139L18.2658 24.5357L14.2338 24.5357L14.2338 19.5ZM27.8309 12.9546L22.7952 12.9546C22.787 12.9546 22.7788 12.9548 22.7706 12.9552C22.7623 12.9556 22.7541 12.9562 22.7459 12.957C22.7377 12.9578 22.7295 12.9588 22.7214 12.96C22.7133 12.9612 22.7052 12.9627 22.6971 12.9643C22.689 12.9659 22.681 12.9677 22.673 12.9697C22.665 12.9717 22.657 12.9739 22.6492 12.9763C22.6413 12.9787 22.6335 12.9812 22.6257 12.984C22.618 12.9868 22.6103 12.9897 22.6027 12.9929C22.595 12.9961 22.5875 12.9994 22.5801 13.0029C22.5726 13.0064 22.5653 13.0101 22.558 13.014C22.5508 13.0179 22.5436 13.022 22.5365 13.0262C22.5295 13.0304 22.5225 13.0348 22.5157 13.0394C22.5088 13.044 22.5021 13.0487 22.4955 13.0536C22.4888 13.0585 22.4823 13.0636 22.476 13.0688C22.4696 13.0741 22.4634 13.0794 22.4573 13.085C22.4512 13.0905 22.4452 13.0962 22.4394 13.102C22.4336 13.1078 22.4279 13.1138 22.4224 13.1199C22.4168 13.126 22.4115 13.1322 22.4062 13.1386C22.401 13.145 22.3959 13.1514 22.391 13.1581C22.3861 13.1647 22.3814 13.1714 22.3768 13.1783C22.3722 13.1851 22.3678 13.1921 22.3636 13.1991C22.3593 13.2062 22.3553 13.2134 22.3514 13.2206C22.3475 13.2279 22.3438 13.2352 22.3403 13.2427C22.3368 13.2501 22.3334 13.2577 22.3303 13.2653C22.3271 13.2729 22.3242 13.2806 22.3214 13.2883C22.3186 13.2961 22.316 13.3039 22.3137 13.3118C22.3113 13.3196 22.3091 13.3276 22.3071 13.3356C22.3051 13.3436 22.3033 13.3516 22.3017 13.3597C22.3 13.3678 22.2986 13.3759 22.2974 13.384C22.2962 13.3922 22.2952 13.4003 22.2944 13.4085C22.2936 13.4167 22.293 13.4249 22.2926 13.4332C22.2922 13.4414 22.292 13.4496 22.292 13.4579C22.292 13.4661 22.2922 13.4743 22.2926 13.4826C22.293 13.4908 22.2936 13.499 22.2944 13.5072C22.2952 13.5154 22.2962 13.5236 22.2974 13.5317C22.2986 13.5399 22.3 13.548 22.3017 13.556C22.3033 13.5641 22.3051 13.5722 22.3071 13.5802C22.3091 13.5881 22.3113 13.5961 22.3137 13.604C22.316 13.6118 22.3186 13.6197 22.3214 13.6274C22.3242 13.6352 22.3271 13.6428 22.3303 13.6505C22.3334 13.6581 22.3368 13.6656 22.3403 13.673C22.3438 13.6805 22.3475 13.6878 22.3514 13.6951C22.3553 13.7024 22.3593 13.7095 22.3636 13.7166C22.3678 13.7237 22.3722 13.7306 22.3768 13.7375C22.3814 13.7443 22.3861 13.751 22.391 13.7577C22.3959 13.7643 22.401 13.7708 22.4062 13.7771C22.4115 13.7835 22.4168 13.7897 22.4224 13.7958C22.4279 13.8019 22.4336 13.8079 22.4394 13.8137C22.4452 13.8196 22.4512 13.8252 22.4573 13.8308C22.4634 13.8363 22.4696 13.8417 22.476 13.8469C22.4823 13.8521 22.4888 13.8572 22.4955 13.8621C22.5021 13.867 22.5088 13.8717 22.5157 13.8763C22.5225 13.8809 22.5295 13.8853 22.5365 13.8895C22.5436 13.8938 22.5508 13.8978 22.558 13.9017C22.5653 13.9056 22.5726 13.9093 22.5801 13.9128C22.5875 13.9163 22.595 13.9197 22.6027 13.9228C22.6103 13.926 22.618 13.9289 22.6257 13.9317C22.6335 13.9345 22.6413 13.9371 22.6492 13.9395C22.657 13.9419 22.665 13.944 22.673 13.9461C22.681 13.9481 22.689 13.9499 22.6971 13.9515C22.7052 13.9531 22.7133 13.9545 22.7214 13.9557C22.7295 13.9569 22.7377 13.9579 22.7459 13.9587C22.7541 13.9595 22.7623 13.9601 22.7706 13.9605C22.7788 13.9609 22.787 13.9611 22.7952 13.9611L27.8309 13.9611C27.8391 13.9611 27.8474 13.9609 27.8556 13.9605C27.8638 13.9601 27.872 13.9595 27.8802 13.9587C27.8884 13.9579 27.8966 13.9569 27.9047 13.9557C27.9129 13.9545 27.921 13.9531 27.9291 13.9515C27.9372 13.9499 27.9452 13.9481 27.9532 13.9461C27.9612 13.944 27.9691 13.9419 27.977 13.9395C27.9849 13.9371 27.9927 13.9345 28.0004 13.9317C28.0082 13.9289 28.0159 13.926 28.0235 13.9228C28.0311 13.9197 28.0386 13.9163 28.0461 13.9128C28.0535 13.9093 28.0609 13.9056 28.0681 13.9017C28.0754 13.8978 28.0826 13.8938 28.0896 13.8895C28.0967 13.8853 28.1036 13.8809 28.1105 13.8763C28.1173 13.8717 28.1241 13.867 28.1308 13.8621C28.1373 13.8572 28.1438 13.8521 28.1501 13.8469C28.1565 13.8417 28.1628 13.8363 28.1689 13.8308C28.1749 13.8252 28.1809 13.8196 28.1867 13.8137C28.1925 13.8079 28.1982 13.8019 28.2037 13.7958C28.2093 13.7897 28.2147 13.7835 28.22 13.7771C28.2252 13.7708 28.2303 13.7643 28.2351 13.7577C28.24 13.751 28.2448 13.7443 28.2494 13.7375C28.2539 13.7306 28.2584 13.7237 28.2626 13.7166C28.2668 13.7095 28.2708 13.7024 28.2747 13.6951C28.2786 13.6878 28.2824 13.6805 28.2859 13.673C28.2894 13.6656 28.2927 13.6581 28.2959 13.6505C28.299 13.6428 28.302 13.6352 28.3047 13.6274C28.3075 13.6197 28.3101 13.6118 28.3125 13.604C28.3149 13.5961 28.3171 13.5881 28.319 13.5802C28.321 13.5722 28.3228 13.5641 28.3245 13.556C28.3261 13.548 28.3275 13.5399 28.3287 13.5317C28.33 13.5236 28.331 13.5154 28.3317 13.5072C28.3325 13.499 28.3332 13.4908 28.3336 13.4826C28.334 13.4743 28.3342 13.4661 28.3342 13.4579C28.3342 13.4496 28.334 13.4414 28.3336 13.4332C28.3332 13.4249 28.3325 13.4167 28.3317 13.4085C28.331 13.4003 28.33 13.3922 28.3287 13.384C28.3275 13.3759 28.3261 13.3678 28.3245 13.3597C28.3228 13.3516 28.321 13.3436 28.319 13.3356C28.3171 13.3276 28.3149 13.3196 28.3125 13.3118C28.3101 13.3039 28.3075 13.2961 28.3047 13.2883C28.302 13.2806 28.299 13.2729 28.2959 13.2653C28.2927 13.2577 28.2894 13.2501 28.2859 13.2427C28.2824 13.2352 28.2786 13.2279 28.2747 13.2206C28.2708 13.2134 28.2668 13.2062 28.2626 13.1991C28.2584 13.1921 28.2539 13.1851 28.2494 13.1783C28.2448 13.1714 28.24 13.1647 28.2351 13.1581C28.2303 13.1514 28.2252 13.145 28.22 13.1386C28.2147 13.1322 28.2093 13.126 28.2037 13.1199C28.1982 13.1138 28.1925 13.1078 28.1867 13.102C28.1809 13.0962 28.1749 13.0905 28.1689 13.085C28.1628 13.0794 28.1565 13.0741 28.1501 13.0688C28.1438 13.0636 28.1373 13.0585 28.1308 13.0536C28.1241 13.0487 28.1173 13.044 28.1105 13.0394C28.1036 13.0348 28.0967 13.0304 28.0896 13.0262C28.0826 13.022 28.0754 13.0179 28.0681 13.014C28.0609 13.0101 28.0535 13.0064 28.0461 13.0029C28.0386 12.9994 28.0311 12.9961 28.0235 12.9929C28.0159 12.9897 28.0082 12.9868 28.0004 12.984C27.9927 12.9812 27.9849 12.9787 27.977 12.9763C27.9691 12.9739 27.9612 12.9717 27.9532 12.9697C27.9452 12.9677 27.9372 12.9659 27.9291 12.9643C27.921 12.9627 27.9129 12.9612 27.9047 12.96C27.8966 12.9588 27.8884 12.9578 27.8802 12.957C27.872 12.9562 27.8638 12.9556 27.8556 12.9552C27.8474 12.9548 27.8391 12.9546 27.8309 12.9546ZM18.7662 25.0389L13.7305 25.0389C13.7223 25.0389 13.714 25.0391 13.7058 25.0395C13.6976 25.0399 13.6894 25.0405 13.6812 25.0413C13.6729 25.0421 13.6648 25.0431 13.6566 25.0443C13.6485 25.0455 13.6403 25.0469 13.6322 25.0485C13.6242 25.0501 13.6161 25.0519 13.6081 25.0539C13.6001 25.0559 13.5922 25.0581 13.5843 25.0605C13.5764 25.0628 13.5686 25.0654 13.5608 25.0682C13.553 25.0709 13.5453 25.0739 13.5377 25.0771C13.5301 25.0802 13.5226 25.0835 13.5151 25.0871C13.5077 25.0906 13.5003 25.0943 13.493 25.0982C13.4857 25.102 13.4786 25.1061 13.4715 25.1103C13.4644 25.1146 13.4574 25.1189 13.4506 25.1235C13.4437 25.1281 13.437 25.1328 13.4304 25.1377C13.4237 25.1427 13.4172 25.1477 13.4109 25.153C13.4045 25.1582 13.3982 25.1635 13.3921 25.1691C13.386 25.1746 13.38 25.1803 13.3742 25.1861C13.3684 25.1919 13.3627 25.1979 13.3572 25.204C13.3516 25.2101 13.3462 25.2164 13.341 25.2227C13.3358 25.2291 13.3307 25.2356 13.3258 25.2422C13.3209 25.2488 13.3161 25.2555 13.3115 25.2624C13.3069 25.2693 13.3025 25.2762 13.2983 25.2833C13.294 25.2904 13.29 25.2975 13.2861 25.3048C13.2822 25.3121 13.2785 25.3194 13.275 25.3269C13.2714 25.3343 13.2681 25.3419 13.2649 25.3495C13.2618 25.3571 13.2588 25.3648 13.256 25.3725C13.2533 25.3803 13.2507 25.3881 13.2483 25.396C13.2459 25.4039 13.2437 25.4118 13.2417 25.4198C13.2397 25.4278 13.2379 25.4359 13.2362 25.444C13.2346 25.452 13.2332 25.4602 13.232 25.4683C13.2308 25.4765 13.2298 25.4847 13.229 25.4929C13.2282 25.5011 13.2276 25.5093 13.2272 25.5175C13.2268 25.5257 13.2266 25.534 13.2266 25.5422C13.2266 25.5505 13.2268 25.5587 13.2272 25.5669C13.2276 25.5752 13.2282 25.5834 13.229 25.5916C13.2298 25.5998 13.2308 25.608 13.232 25.6161C13.2332 25.6243 13.2346 25.6324 13.2362 25.6405C13.2379 25.6486 13.2397 25.6566 13.2417 25.6646C13.2437 25.6726 13.2459 25.6806 13.2483 25.6884C13.2507 25.6963 13.2533 25.7042 13.256 25.7119C13.2588 25.7197 13.2618 25.7274 13.2649 25.735C13.2681 25.7426 13.2714 25.7501 13.275 25.7576C13.2785 25.765 13.2822 25.7724 13.2861 25.7797C13.29 25.7869 13.294 25.7941 13.2983 25.8012C13.3025 25.8082 13.3069 25.8152 13.3115 25.822C13.3161 25.8289 13.3209 25.8356 13.3258 25.8422C13.3307 25.8489 13.3358 25.8554 13.341 25.8617C13.3462 25.8681 13.3516 25.8743 13.3572 25.8804C13.3627 25.8866 13.3684 25.8925 13.3742 25.8983C13.38 25.9042 13.386 25.9098 13.3921 25.9154C13.3982 25.9209 13.4045 25.9263 13.4109 25.9315C13.4172 25.9367 13.4237 25.9418 13.4304 25.9467C13.437 25.9516 13.4437 25.9563 13.4506 25.9609C13.4574 25.9655 13.4644 25.9699 13.4715 25.9741C13.4786 25.9784 13.4857 25.9824 13.493 25.9863C13.5003 25.9902 13.5077 25.9939 13.5151 25.9974C13.5226 26.0009 13.5301 26.0042 13.5377 26.0074C13.5453 26.0105 13.553 26.0135 13.5608 26.0163C13.5686 26.019 13.5764 26.0216 13.5843 26.024C13.5922 26.0264 13.6001 26.0286 13.6081 26.0306C13.6161 26.0325 13.6242 26.0343 13.6322 26.0359C13.6403 26.0375 13.6485 26.0389 13.6566 26.0401C13.6648 26.0413 13.6729 26.0423 13.6812 26.0431C13.6894 26.0439 13.6976 26.0445 13.7058 26.0449C13.714 26.0453 13.7223 26.0455 13.7305 26.0455L18.7662 26.0455C18.7744 26.0455 18.7827 26.0453 18.7909 26.0449C18.7991 26.0445 18.8073 26.0439 18.8155 26.0431C18.8237 26.0423 18.8319 26.0413 18.8401 26.0401C18.8482 26.0389 18.8564 26.0375 18.8645 26.0359C18.8725 26.0343 18.8806 26.0325 18.8886 26.0306C18.8966 26.0286 18.9045 26.0264 18.9124 26.024C18.9203 26.0216 18.9281 26.019 18.9359 26.0163C18.9437 26.0135 18.9514 26.0105 18.959 26.0074C18.9666 26.0042 18.9741 26.0009 18.9816 25.9974C18.989 25.9939 18.9964 25.9902 19.0037 25.9863C19.011 25.9824 19.0181 25.9784 19.0252 25.9741C19.0323 25.9699 19.0392 25.9655 19.0461 25.9609C19.053 25.9563 19.0597 25.9516 19.0663 25.9467C19.073 25.9418 19.0795 25.9367 19.0858 25.9315C19.0922 25.9263 19.0985 25.9209 19.1046 25.9154C19.1107 25.9098 19.1167 25.9042 19.1225 25.8983C19.1283 25.8925 19.134 25.8866 19.1395 25.8804C19.1451 25.8743 19.1505 25.8681 19.1557 25.8617C19.1609 25.8554 19.166 25.8489 19.1709 25.8422C19.1758 25.8356 19.1806 25.8289 19.1852 25.822C19.1898 25.8152 19.1942 25.8082 19.1984 25.8012C19.2026 25.7941 19.2067 25.7869 19.2106 25.7797C19.2145 25.7724 19.2182 25.765 19.2217 25.7576C19.2253 25.7501 19.2286 25.7426 19.2318 25.735C19.2349 25.7274 19.2379 25.7197 19.2407 25.7119C19.2434 25.7042 19.246 25.6963 19.2484 25.6884C19.2508 25.6805 19.253 25.6726 19.255 25.6646C19.257 25.6566 19.2588 25.6486 19.2605 25.6405C19.2621 25.6324 19.2635 25.6243 19.2647 25.6161C19.2659 25.608 19.2669 25.5998 19.2677 25.5916C19.2685 25.5834 19.2691 25.5752 19.2695 25.5669C19.2699 25.5587 19.2701 25.5505 19.2701 25.5422C19.2701 25.534 19.2699 25.5257 19.2695 25.5175C19.2691 25.5093 19.2685 25.5011 19.2677 25.4929C19.2669 25.4847 19.2659 25.4765 19.2647 25.4683C19.2635 25.4602 19.2621 25.452 19.2605 25.4439C19.2588 25.4359 19.257 25.4278 19.255 25.4198C19.253 25.4118 19.2508 25.4039 19.2484 25.396C19.246 25.3881 19.2434 25.3803 19.2407 25.3725C19.2379 25.3648 19.2349 25.3571 19.2318 25.3495C19.2286 25.3419 19.2253 25.3343 19.2217 25.3269C19.2182 25.3194 19.2145 25.3121 19.2106 25.3048C19.2067 25.2975 19.2026 25.2904 19.1984 25.2833C19.1942 25.2762 19.1898 25.2693 19.1852 25.2624C19.1806 25.2555 19.1758 25.2488 19.1709 25.2422C19.166 25.2356 19.1609 25.2291 19.1557 25.2227C19.1505 25.2164 19.1451 25.2101 19.1395 25.204C19.134 25.1979 19.1283 25.1919 19.1225 25.1861C19.1167 25.1803 19.1107 25.1746 19.1046 25.1691C19.0985 25.1635 19.0922 25.1582 19.0858 25.1529C19.0795 25.1477 19.073 25.1427 19.0663 25.1377C19.0597 25.1328 19.053 25.1281 19.0461 25.1235C19.0392 25.1189 19.0323 25.1146 19.0252 25.1103C19.0181 25.1061 19.011 25.102 19.0037 25.0982C18.9964 25.0943 18.989 25.0906 18.9816 25.0871C18.9741 25.0835 18.9666 25.0802 18.959 25.0771C18.9514 25.0739 18.9437 25.0709 18.9359 25.0682C18.9281 25.0654 18.9203 25.0628 18.9124 25.0605C18.9045 25.0581 18.8966 25.0559 18.8886 25.0539C18.8806 25.0519 18.8725 25.0501 18.8645 25.0485C18.8564 25.0469 18.8482 25.0455 18.8401 25.0443C18.8319 25.0431 18.8237 25.0421 18.8155 25.0413C18.8073 25.0405 18.7991 25.0399 18.7909 25.0395C18.7827 25.0391 18.7744 25.0389 18.7662 25.0389Z"   fill="#FFFFFF" >
</path>
</svg>
